<?xml version="1.0" encoding="UTF-8"?>
<svg xmlns="http://www.w3.org/2000/svg" width="1600" height="900" viewBox="0 0 1600 900"
     role="img" aria-label="script-check">
<defs>
  <filter id="edgeR" x="-8%" y="-8%" width="116%" height="116%">
    <feTurbulence type="fractalNoise" baseFrequency="0.05" numOctaves="3" seed="6" result="t"/>
    <feDisplacementMap in="SourceGraphic" in2="t" scale="1.1" xChannelSelector="R" yChannelSelector="G"/>
  </filter>
  <filter id="grain" x="0" y="0" width="100%" height="100%">
    <feTurbulence type="fractalNoise" baseFrequency="0.8" numOctaves="4" seed="9" result="n"/>
    <feColorMatrix in="n" type="saturate" values="0"/>
    <feComponentTransfer><feFuncA type="linear" slope="0.12"/></feComponentTransfer>
  </filter>
  <filter id="mottle" x="0" y="0" width="100%" height="100%">
    <feTurbulence type="fractalNoise" baseFrequency="0.012" numOctaves="4" seed="13" result="n"/>
    <feColorMatrix in="n" type="saturate" values="0"/>
    <feComponentTransfer><feFuncA type="linear" slope="0.1"/></feComponentTransfer>
  </filter>
  <filter id="speck" x="0" y="0" width="100%" height="100%">
    <feTurbulence type="fractalNoise" baseFrequency="0.28" numOctaves="3" seed="17" result="n"/>
    <feColorMatrix in="n" type="matrix" values="0 0 0 0 0  0 0 0 0 0  0 0 0 0 0  2.4 0 0 0 -1.62" result="a"/>
    <feComposite in="SourceGraphic" in2="a" operator="in"/>
  </filter></defs>
<rect x="0" y="0" width="1600" height="900" fill="#EAEAE6"/>
<path d="M470.8 301.2L473.5 301.7L477.0 302.1L480.5 302.5L484.0 302.8L487.5 303.1L491.0 303.2L494.5 303.1L498.0 302.9L501.5 302.7L505.0 302.4L508.5 302.2L512.0 302.1L515.5 302.0L519.0 302.0L522.6 302.0L526.1 302.1L529.6 302.1L533.1 302.1L536.6 302.2L540.1 302.3L543.6 302.4L547.1 302.7L550.6 302.9L554.1 303.0L557.6 303.0L561.1 302.9L564.6 302.6L568.1 302.2L571.6 301.7L575.1 301.3L578.6 301.0L582.1 300.8L585.6 300.7L589.1 300.8L592.6 301.0L596.1 301.1L599.6 301.2L603.1 301.3L606.6 301.3L609.3 301.2L610.2 303.9L611.5 307.1L612.8 310.4L614.2 313.6L615.7 316.8L617.2 319.9L618.8 323.1L620.5 326.2L622.2 329.2L623.8 332.4L625.3 335.5L626.7 338.7L627.9 342.0L629.0 345.4L630.1 348.7L631.2 352.0L632.4 355.3L633.7 358.6L635.0 361.8L636.5 365.0L637.9 368.2L639.4 371.4L640.8 374.6L642.1 377.9L643.5 381.1L644.9 384.3L646.3 387.5L647.8 390.7L649.3 393.8L650.8 397.0L652.1 400.3L653.4 403.5L654.6 406.8L655.7 410.1L656.8 413.5L658.0 416.8L659.2 420.1L660.5 423.3L662.0 426.5L663.5 429.7L665.0 432.9L666.4 436.1L667.8 439.3L669.1 442.5L670.4 445.8L671.7 449.1L673.0 452.3L674.3 455.5L675.7 458.7L677.2 461.9L678.6 465.1L680.0 468.3L681.4 471.6L682.7 474.8L683.9 478.1L685.2 481.4L686.5 484.6L687.8 487.9L689.3 491.1L690.8 494.2L692.2 497.4L693.7 500.6L695.1 503.8L696.4 507.1L697.6 510.4L698.9 513.6L700.2 516.9L701.6 520.1L703.2 523.2L704.8 526.4L706.4 529.5L708.0 532.6L709.5 535.8L710.9 539.0L712.2 542.2L713.5 545.5L714.7 548.8L716.0 552.0L717.4 555.3L718.8 558.5L720.2 561.7L721.6 564.9L723.0 568.1L724.4 571.3L725.8 574.5L727.1 577.8L728.6 581.0L730.1 584.1L731.7 587.3L733.3 590.4L735.0 593.5L736.6 596.6L738.1 599.8L739.4 603.0L740.6 606.3L741.7 609.6L742.8 613.0L743.9 616.3L745.1 619.6L746.5 622.8L747.9 626.1L749.3 629.2L750.8 632.4L752.3 635.6L753.7 638.8L755.2 642.0L756.6 645.2L758.1 648.4L759.5 651.6L761.0 654.7L762.5 657.9L763.9 661.1L765.2 664.4L766.3 667.7L767.4 671.1L768.3 674.5L769.3 677.9L770.3 681.2L771.4 684.6L772.7 687.8L774.2 691.0L775.7 694.2L777.2 697.3L778.8 700.5L780.2 703.7L781.6 706.9L782.9 710.1L784.2 713.4L785.4 716.7L786.6 720.0L787.9 723.3L789.1 726.6L790.2 729.9L791.3 733.2L792.3 736.6L793.3 740.0L794.3 743.3L795.4 746.7L796.6 750.0L798.0 753.2L799.5 756.4L801.1 759.5L802.6 762.6L804.2 765.8L805.6 769.0L806.9 772.3L808.0 775.6L809.1 778.9L810.2 782.2L811.4 785.6L812.5 788.9L813.8 792.2L815.0 795.4L816.3 798.7L817.5 802.0L818.7 805.3L819.9 808.6L821.2 811.9L822.5 815.1L823.9 818.3L825.4 821.5L827.0 824.6L828.5 827.8L830.0 830.9L831.4 834.1L832.7 837.4L833.9 840.7L835.1 844.0L836.2 847.3L837.4 850.6L838.7 853.9L840.1 857.1L841.6 860.3L843.1 863.5L844.5 866.7L845.9 869.9L847.2 873.1L848.5 876.4L849.8 879.6L851.2 882.8L852.6 886.0L854.1 889.2L855.6 892.4L857.1 895.5L858.5 898.5L858.0 899.3L854.7 899.2L851.2 899.1L847.7 899.0L844.2 899.0L840.7 899.0L837.2 899.1L833.7 899.3L830.2 899.5L826.7 899.6L823.2 899.6L819.7 899.5L816.2 899.3L812.7 899.1L809.1 899.0L805.6 899.0L802.1 899.0L798.6 899.2L795.1 899.4L791.6 899.5L788.1 899.7L784.6 899.7L781.1 899.7L777.6 899.6L774.1 899.5L770.6 899.4L767.1 899.4L763.6 899.4L760.1 899.3L756.6 899.2L753.1 899.1L749.6 898.9L746.1 898.6L742.6 898.4L739.1 898.2L735.6 898.2L732.1 898.3L728.6 898.5L725.1 898.8L721.6 899.0L718.1 899.2L714.6 899.3L711.1 899.2L707.5 899.1L704.0 898.8L700.5 898.6L697.0 898.4L693.5 898.2L690.0 898.1L686.5 898.0L683.0 898.0L679.5 897.9L676.0 897.8L672.5 897.8L669.0 897.8L665.5 897.9L662.0 898.2L658.5 898.5L655.0 898.9L651.5 899.2L648.0 899.5L644.5 899.5L641.0 899.5L637.5 899.3L634.0 899.0L630.5 898.7L627.0 898.5L623.5 898.4L620.0 898.5L616.5 898.6L613.0 898.8L609.4 899.0L605.9 899.2L602.4 899.4L598.9 899.7L595.4 899.9L591.9 900.2L588.4 900.5L584.9 900.8L581.4 901.0L577.9 901.2L574.4 901.2L570.9 901.1L567.4 900.9L563.9 900.7L560.4 900.4L556.9 900.3L553.4 900.3L549.9 900.5L546.4 900.8L542.9 901.1L539.4 901.5L535.9 901.8L532.4 902.0L528.9 902.1L525.4 902.2L521.9 902.3L518.4 902.3L514.9 902.4L511.3 902.5L507.8 902.5L504.3 902.5L500.8 902.4L497.3 902.2L493.8 902.0L490.3 901.8L486.8 901.7L483.3 901.8L479.8 901.9L476.3 902.1L472.8 902.4L469.3 902.7L465.8 902.8L462.3 902.8L458.8 902.8L455.3 902.6L451.8 902.5L448.3 902.3L444.8 902.3L441.3 902.3L437.8 902.3L434.3 902.3L430.8 902.3L427.3 902.2L423.8 902.0L420.3 901.9L416.8 901.7L413.2 901.6L409.7 901.6L406.2 901.7L402.7 901.8L399.2 901.9L395.7 901.9L392.2 901.8L388.7 901.6L385.2 901.4L381.7 901.3L378.2 901.1L374.7 901.1L371.2 901.1L367.7 901.2L364.2 901.2L360.7 901.3L357.2 901.2L353.7 901.0L350.2 900.8L346.7 900.5L343.2 900.2L339.7 900.1L336.2 900.0L332.7 900.0L329.2 900.0L325.7 900.1L322.2 900.1L318.7 900.1L315.2 900.0L311.6 899.9L308.1 899.9L304.6 899.9L301.1 899.9L297.6 900.0L294.1 900.1L290.6 900.1L287.1 900.0L283.6 899.8L280.1 899.5L276.6 899.2L273.1 898.9L269.6 898.7L266.1 898.7L262.6 898.8L259.1 899.0L255.6 899.3L252.2 899.5L250.8 898.6L251.8 895.4L253.0 892.1L254.2 888.8L255.4 885.5L256.6 882.3L257.8 879.0L259.0 875.7L260.3 872.4L261.6 869.1L262.9 865.9L264.4 862.7L265.8 859.5L267.1 856.3L268.4 853.0L269.5 849.7L270.4 846.3L271.3 842.9L272.1 839.4L273.0 836.0L274.0 832.6L275.1 829.3L276.3 826.0L277.7 822.8L279.1 819.6L280.5 816.4L281.9 813.1L283.2 809.9L284.5 806.7L285.9 803.4L287.2 800.2L288.5 796.9L289.9 793.7L291.1 790.4L292.3 787.1L293.5 783.8L294.5 780.5L295.4 777.1L296.4 773.7L297.4 770.3L298.6 767.0L299.9 763.8L301.4 760.6L302.9 757.4L304.5 754.3L306.1 751.1L307.6 748.0L309.0 744.7L310.3 741.5L311.5 738.2L312.8 734.9L314.0 731.6L315.2 728.4L316.5 725.1L317.7 721.8L318.9 718.5L320.0 715.2L321.1 711.9L322.2 708.5L323.3 705.2L324.6 701.9L325.9 698.7L327.3 695.5L328.8 692.3L330.3 689.1L331.8 685.9L333.1 682.7L334.3 679.4L335.4 676.1L336.4 672.7L337.4 669.3L338.5 666.0L339.6 662.7L340.7 659.3L341.9 656.1L343.1 652.8L344.3 649.5L345.4 646.1L346.4 642.8L347.5 639.4L348.6 636.1L349.7 632.8L350.9 629.5L352.1 626.2L353.4 622.9L354.6 619.7L355.8 616.3L356.8 613.0L357.8 609.6L358.8 606.3L359.8 602.9L360.8 599.5L361.9 596.2L363.1 592.9L364.3 589.6L365.5 586.3L366.7 583.0L367.8 579.7L368.8 576.3L369.8 573.0L370.7 569.6L371.7 566.2L372.8 562.9L373.9 559.6L375.1 556.3L376.4 553.0L377.7 549.8L378.9 546.5L380.1 543.2L381.2 539.9L382.3 536.5L383.4 533.2L384.6 529.9L385.8 526.6L387.1 523.3L388.3 520.1L389.4 516.8L390.5 513.4L391.5 510.1L392.5 506.7L393.4 503.3L394.4 499.9L395.5 496.6L396.8 493.3L398.1 490.1L399.6 486.9L401.1 483.7L402.5 480.5L403.8 477.2L405.0 474.0L406.2 470.6L407.3 467.3L408.4 464.0L409.5 460.7L410.6 457.3L411.7 454.0L412.8 450.7L413.9 447.4L415.0 444.0L416.0 440.7L417.1 437.3L418.2 434.0L419.5 430.7L420.9 427.5L422.3 424.3L423.9 421.2L425.5 418.0L427.0 414.8L428.3 411.6L429.5 408.3L430.6 405.0L431.6 401.6L432.5 398.2L433.5 394.9L434.6 391.5L435.7 388.2L436.9 384.9L438.2 381.6L439.4 378.4L440.7 375.1L442.0 371.8L443.3 368.6L444.6 365.3L446.1 362.1L447.6 359.0L449.1 355.8L450.6 352.6L452.0 349.4L453.3 346.1L454.4 342.8L455.4 339.4L456.3 336.0L457.2 332.6L458.2 329.3L459.3 325.9L460.5 322.6L461.8 319.4L463.2 316.2L464.6 312.9L465.9 309.7L467.3 306.5L468.6 303.2Z" fill="#1B3FA0" opacity="0.90"/><path d="M580.5 452.0L580.8 455.5L580.6 458.9L580.0 462.4L579.3 465.8L578.2 469.1L577.2 472.4L576.6 476.0L575.1 479.2L573.5 482.5L570.7 484.8L567.7 486.8L565.7 489.8L563.2 492.4L560.8 495.2L557.4 496.6L553.9 497.6L550.7 499.3L547.3 500.6L543.7 501.4L540.0 501.2L536.5 499.9L533.1 498.8L529.7 497.8L526.5 496.5L523.0 495.8L520.1 493.9L517.5 491.5L514.7 489.3L512.3 486.8L509.1 485.0L507.3 481.9L506.1 478.5L504.7 475.3L503.4 472.2L501.2 469.3L499.9 466.0L499.0 462.6L498.0 459.1L497.3 455.6L497.1 452.0L496.8 448.4L497.5 444.8L498.2 441.3L499.3 437.9L501.2 434.7L501.7 431.2L503.2 427.9L504.8 424.7L506.8 421.7L509.3 419.2L511.3 416.2L514.2 414.1L517.4 412.4L520.4 410.7L523.5 409.2L526.6 407.7L529.8 406.6L533.2 406.1L536.5 405.0L540.0 404.0L543.5 404.1L547.1 404.2L550.4 405.6L553.8 406.7L557.1 408.1L560.0 410.1L563.4 411.3L566.1 413.7L568.7 416.2L571.1 418.9L573.4 421.6L576.2 424.1L578.0 427.3L578.5 431.1L578.9 434.7L579.7 438.1L580.6 441.5L581.6 444.9L581.1 448.5Z" fill="#15151A"/><path d="M540.0 506.0L543.5 506.3L546.9 506.9L550.4 507.5L553.8 508.2L557.2 509.4L560.4 510.9L563.4 512.8L566.3 514.8L569.1 516.8L571.9 518.9L574.6 521.2L577.1 523.6L579.4 526.3L581.5 529.0L583.6 531.8L585.8 534.5L588.1 537.1L590.4 539.8L592.6 542.6L594.4 545.6L596.0 548.8L597.4 552.0L598.7 555.2L600.1 558.5L601.3 561.8L602.5 565.1L603.5 568.5L604.4 571.9L605.3 575.3L606.1 578.8L606.9 582.2L607.5 585.7L608.0 589.2L608.4 592.7L608.7 596.2L609.0 599.7L609.6 603.2L610.1 606.6L610.6 610.1L611.1 613.6L611.4 617.1L611.5 620.6L611.7 624.1L611.8 627.6L611.9 631.2L611.8 634.7L611.7 638.2L611.5 641.7L611.5 645.2L611.7 648.7L611.9 652.2L612.1 655.7L612.1 659.2L611.9 662.8L611.6 666.3L611.5 669.8L611.5 673.3L611.7 676.8L612.0 680.3L612.1 683.8L612.1 687.3L611.9 690.8L611.8 694.3L611.8 697.8L611.8 701.3L611.8 704.8L611.5 708.3L610.9 711.7L610.4 715.2L610.0 718.7L609.8 722.2L610.0 725.7L610.2 729.2L610.2 732.7L609.9 736.2L609.4 739.7L609.0 743.2L608.9 746.7L609.0 750.2L609.2 753.8L609.2 757.3L609.0 760.8L608.7 764.3L608.2 767.8L607.9 771.4L607.5 774.9L607.1 778.4L606.4 781.8L605.4 785.2L604.2 788.6L602.9 791.9L601.9 795.3L601.0 798.7L600.2 802.1L599.3 805.5L598.1 808.8L596.6 812.1L595.0 815.2L593.5 818.4L592.0 821.6L590.5 824.8L589.0 827.9L587.1 830.9L584.9 833.8L582.6 836.5L579.9 838.9L577.2 841.2L574.2 843.2L571.0 844.8L567.7 846.0L564.2 846.9L560.7 847.5L557.3 848.1L553.9 848.7L550.4 849.3L547.0 849.8L543.5 849.9L540.0 850.0L536.5 849.7L533.1 849.4L529.6 849.0L526.2 848.5L522.8 847.8L519.4 846.9L516.1 846.0L512.8 844.9L509.5 843.7L506.3 842.4L503.3 840.5L500.5 838.3L498.1 835.8L496.0 833.0L494.0 830.2L492.1 827.3L490.3 824.3L488.6 821.3L487.1 818.1L485.8 814.9L484.5 811.6L483.3 808.4L482.0 805.1L480.9 801.8L480.0 798.4L479.3 795.0L478.7 791.5L478.0 788.1L477.2 784.7L476.2 781.3L475.3 777.9L474.5 774.5L474.1 771.0L473.8 767.5L473.6 764.0L473.2 760.5L472.6 757.1L471.9 753.6L471.3 750.2L470.7 746.7L470.3 743.2L469.9 739.8L469.2 736.3L468.4 732.9L467.6 729.4L467.1 725.9L466.8 722.4L466.8 718.9L466.8 715.4L466.6 711.9L466.1 708.4L465.6 704.9L465.2 701.4L465.2 697.8L465.5 694.3L465.9 690.8L466.2 687.3L466.3 683.8L466.2 680.3L466.2 676.7L466.2 673.2L466.4 669.7L466.5 666.2L466.5 662.7L466.3 659.2L466.1 655.7L466.1 652.2L466.3 648.6L466.8 645.2L467.3 641.7L467.8 638.2L468.1 634.7L468.3 631.2L468.5 627.7L469.0 624.2L469.7 620.7L470.5 617.3L471.3 613.8L472.1 610.4L472.7 607.0L473.3 603.5L474.0 600.1L474.6 596.6L475.1 593.2L475.5 589.7L475.8 586.3L476.1 582.8L476.5 579.3L477.1 575.9L477.9 572.5L478.7 569.1L479.5 565.7L480.3 562.3L481.2 558.9L482.2 555.6L483.4 552.3L484.8 549.1L486.2 545.9L487.8 542.8L489.6 539.8L491.5 536.9L493.7 534.1L496.0 531.4L498.3 528.8L500.5 526.1L502.7 523.4L505.0 520.7L507.5 518.2L510.3 515.9L513.3 514.0L516.3 512.2L519.5 510.6L522.7 509.0L525.9 507.6L529.3 506.4L532.8 505.7L536.4 505.3Z" fill="#15151A"/><path d="M488.5 548.3L480.6 546.6L477.1 548.0L475.0 550.4L473.1 552.8L471.0 555.2L469.4 557.9L468.1 560.7L466.5 563.5L464.7 566.1L463.2 568.9L462.1 571.9L460.6 574.7L458.6 577.2L456.5 579.7L455.0 582.5L453.6 585.5L451.9 588.2L450.3 591.0L449.4 594.2L448.9 597.6L448.1 600.8L446.9 603.8L445.7 606.9L444.8 610.1L443.8 613.1L442.3 616.0L440.7 618.8L439.9 622.0L439.3 625.2L438.4 628.3L437.1 631.3L436.2 634.3L435.5 637.4L434.4 640.4L432.7 643.2L431.0 645.9L430.1 649.0L429.4 652.1L428.5 655.1L427.6 658.1L427.3 661.3L427.4 664.6L427.0 667.7L426.1 670.7L425.3 673.7L425.5 676.9L426.8 680.5L430.5 684.7L447.4 689.5L453.4 688.1L455.9 685.7L457.2 683.0L458.4 680.2L459.7 677.5L460.4 674.7L460.6 671.7L461.3 668.8L462.5 666.1L463.7 663.4L464.8 660.7L466.0 658.0L467.9 655.6L469.9 653.2L471.3 650.7L472.3 648.0L473.6 645.4L475.1 643.0L476.2 640.4L477.0 637.6L478.1 635.0L479.9 632.7L481.6 630.4L482.9 627.9L483.9 625.2L485.3 622.8L486.7 620.3L487.7 617.6L488.3 614.8L489.5 612.2L491.3 609.9L493.1 607.7L494.6 605.3L496.4 603.0L498.7 600.9L500.9 599.0L502.5 596.6L503.9 594.0L505.6 591.7L507.6 589.5L509.4 587.2L511.0 584.7L512.8 582.4L515.1 580.5L517.3 578.4L518.2 575.4L517.2 571.2L512.2 564.2Z" fill="#15151A"/><path d="M570.2 566.0L566.0 573.4L566.0 577.2L567.7 579.6L569.7 581.6L571.8 583.6L574.0 585.5L576.2 587.4L578.3 589.4L580.1 591.6L581.9 593.8L583.7 595.9L585.8 597.8L588.2 599.6L590.5 601.3L592.5 603.4L593.9 605.7L595.0 608.3L596.1 610.9L597.4 613.3L598.9 615.5L600.5 617.8L602.0 620.1L603.4 622.4L604.9 624.6L606.5 626.9L608.1 629.2L609.6 631.5L610.7 634.0L611.8 636.5L613.1 639.0L614.9 641.3L616.9 643.4L619.0 645.6L620.6 648.1L621.7 650.7L622.4 653.5L623.2 656.3L624.2 659.0L625.3 661.6L626.4 664.4L627.3 667.1L628.2 669.9L629.6 672.5L632.6 674.6L638.5 675.9L655.2 670.6L659.2 666.1L660.2 662.6L659.9 659.4L659.3 656.4L658.7 653.3L658.0 650.3L657.3 647.2L656.6 644.1L656.2 640.9L655.7 637.7L654.9 634.6L653.6 631.7L651.8 629.0L650.0 626.2L648.5 623.4L647.4 620.4L646.6 617.2L645.6 614.1L644.3 611.1L642.8 608.2L641.4 605.3L640.0 602.2L638.7 599.2L637.3 596.2L635.9 593.3L634.4 590.3L633.2 587.2L632.2 584.0L631.2 580.8L629.8 577.7L628.0 575.0L625.7 572.6L623.5 570.3L621.4 567.8L619.7 565.1L618.2 562.3L616.4 559.6L614.5 557.0L612.5 554.7L610.4 552.2L608.5 549.7L606.7 547.3L604.3 545.2L600.0 544.7L592.0 547.5Z" fill="#15151A"/><path d="M667.6 682.0L666.7 685.6L664.7 688.6L662.7 691.5L659.5 693.0L656.9 695.5L653.7 697.5L650.0 697.7L646.6 696.0L643.4 694.6L640.0 693.7L637.5 691.2L635.2 688.7L632.9 685.7L632.7 682.0L632.8 678.3L635.4 675.5L638.0 673.2L640.0 670.2L642.8 667.8L646.3 666.5L650.0 667.5L653.6 667.0L656.8 668.8L659.5 671.0L662.5 672.8L664.7 675.4L667.3 678.2Z" fill="#15151A"/><text x="980" y="392" fill="#15151A" font-size="34" letter-spacing="2.4" font-family="Menlo, DejaVu Sans Mono, monospace" text-anchor="start">ONE</text><text x="1206" y="392" fill="#15151A" font-size="34" letter-spacing="0.4" font-family="Helvetica Neue, Arial, sans-serif" text-anchor="start">person, one thing</text><path d="M980.0 413.9L983.0 414.7L986.0 415.1L989.0 415.1L992.0 415.0L995.0 415.0L998.0 415.1L1001.0 415.3L1004.1 415.7L1007.1 415.9L1010.1 416.0L1013.1 416.0L1016.1 416.0L1019.1 415.9L1022.1 415.7L1025.1 415.5L1028.1 415.1L1031.1 414.8L1034.1 414.7L1037.1 414.8L1040.1 415.2L1043.1 415.6L1046.1 415.8L1049.1 415.6L1052.1 415.2L1055.1 414.8L1058.2 414.6L1061.2 415.0L1064.2 415.3L1067.2 415.6L1070.2 415.7L1073.2 415.6L1076.2 415.5L1079.2 415.6L1082.2 415.7L1085.2 415.8L1088.2 415.8L1091.2 415.7L1094.2 415.7L1097.2 415.9L1100.2 416.2L1103.2 416.6L1106.2 416.9L1109.3 416.9L1112.3 416.8L1115.3 416.6L1118.3 416.4L1121.3 416.3L1124.3 416.2L1127.3 416.0L1130.3 415.8L1133.3 415.5L1136.3 415.4L1139.3 415.4L1142.3 415.5L1145.3 415.5L1148.3 415.4L1151.3 415.2L1154.3 415.1L1157.3 415.1L1160.3 415.3L1163.4 415.7L1166.4 416.0L1169.4 416.1L1172.4 416.0L1175.4 415.9L1178.4 415.7L1181.4 415.6L1184.4 415.3L1187.4 415.0L1190.4 414.6L1193.4 414.3L1196.4 414.2L1199.4 414.4L1202.4 414.7L1205.4 415.1L1208.4 415.3L1211.4 415.3L1214.4 415.1L1217.5 415.0L1220.5 414.9L1223.5 414.9L1226.5 414.8L1229.5 414.7L1232.5 414.5L1235.5 414.4L1238.5 414.5L1241.5 414.6L1244.5 414.7L1247.5 414.6L1250.5 414.4L1253.5 414.2L1256.5 414.1L1259.5 414.3L1262.5 414.7L1265.5 415.1L1268.6 415.4L1271.6 415.6L1274.6 415.7L1277.6 415.8L1280.6 415.9L1283.6 415.9L1286.6 415.8L1289.6 415.5L1292.6 415.2L1295.6 414.9L1298.6 414.8L1301.6 414.9L1304.6 414.7L1307.6 414.5L1310.6 414.2L1313.6 413.8L1316.6 413.6L1319.6 413.7L1322.6 414.0L1325.7 414.4L1328.7 414.8L1331.7 415.1L1334.7 415.2L1337.7 415.0L1340.7 414.9L1343.7 414.7L1346.7 414.4L1349.7 414.0L1352.7 413.7L1355.7 413.6L1358.7 413.7L1361.7 414.0L1364.7 414.4L1367.7 414.6L1370.7 414.6L1373.7 414.4L1376.8 414.1L1379.8 414.0L1382.8 414.0L1385.8 414.1L1388.8 414.2L1391.8 414.2L1394.8 414.2L1397.8 414.2L1400.8 414.2L1403.8 414.1L1406.8 413.8L1409.8 413.3L1412.8 412.9L1415.8 412.5L1418.8 412.5L1421.8 412.9L1424.8 413.4L1427.8 413.9L1430.9 414.2L1433.9 414.4L1436.9 414.4L1439.9 414.4L1442.9 414.5L1445.9 414.5L1448.9 414.4L1451.9 414.3L1454.9 414.1L1457.9 414.1L1460.9 414.1L1463.9 414.2L1466.9 414.1L1469.9 413.9L1472.9 413.6L1475.9 413.3L1478.9 413.2L1481.9 413.4L1485.0 413.7L1488.0 413.9L1491.0 413.9L1494.0 413.7L1497.0 413.5L1500.0 413.2L1503.0 412.9L1506.0 412.6L1509.0 412.1L1509.0 412.0L1506.0 411.8L1503.0 412.0L1500.0 412.1L1497.0 411.9L1494.0 411.6L1491.0 411.4L1488.0 411.5L1484.9 411.6L1481.9 411.5L1478.9 411.3L1475.9 411.1L1472.9 411.2L1469.9 411.2L1466.9 411.1L1463.9 411.0L1460.9 411.0L1457.9 411.3L1454.9 411.6L1451.9 411.6L1448.9 411.4L1445.9 411.0L1442.9 410.8L1439.9 410.5L1436.9 410.2L1433.8 409.7L1430.8 409.5L1427.8 409.7L1424.8 410.1L1421.8 410.3L1418.8 410.3L1415.8 410.3L1412.8 410.4L1409.8 410.6L1406.8 410.5L1403.8 410.3L1400.8 410.2L1397.8 410.2L1394.8 410.3L1391.8 410.2L1388.8 410.0L1385.8 409.8L1382.7 409.8L1379.7 410.2L1376.7 410.6L1373.7 410.8L1370.7 411.0L1367.7 411.4L1364.7 411.6L1361.7 411.6L1358.7 411.1L1355.7 410.5L1352.7 410.1L1349.7 410.0L1346.7 410.1L1343.7 410.1L1340.7 410.3L1337.7 410.7L1334.7 411.2L1331.7 411.5L1328.7 411.4L1325.6 411.2L1322.6 411.1L1319.6 411.2L1316.6 411.3L1313.6 411.2L1310.6 411.0L1307.6 410.9L1304.6 411.1L1301.6 411.1L1298.6 411.0L1295.6 410.9L1292.6 411.1L1289.6 411.5L1286.6 412.0L1283.6 412.2L1280.6 412.2L1277.6 412.0L1274.5 411.8L1271.5 411.5L1268.5 410.9L1265.5 410.3L1262.5 410.1L1259.5 410.3L1256.5 410.7L1253.5 410.9L1250.5 411.0L1247.5 411.0L1244.5 411.1L1241.5 411.1L1238.5 410.8L1235.5 410.4L1232.5 410.2L1229.5 410.3L1226.5 410.6L1223.4 410.7L1220.4 410.5L1217.4 410.4L1214.4 410.4L1211.4 410.5L1208.4 410.5L1205.4 410.5L1202.4 410.7L1199.4 411.1L1196.4 411.6L1193.4 411.8L1190.4 411.7L1187.4 411.3L1184.4 411.1L1181.4 410.9L1178.4 410.7L1175.4 410.5L1172.4 410.5L1169.3 410.8L1166.3 411.3L1163.3 411.5L1160.3 411.5L1157.3 411.3L1154.3 411.3L1151.3 411.3L1148.3 411.4L1145.3 411.3L1142.3 411.3L1139.3 411.5L1136.3 411.7L1133.3 411.8L1130.3 411.5L1127.3 411.2L1124.3 411.0L1121.3 411.2L1118.3 411.5L1115.2 411.8L1112.2 412.0L1109.2 412.4L1106.2 412.7L1103.2 412.8L1100.2 412.4L1097.2 411.8L1094.2 411.4L1091.2 411.2L1088.2 411.1L1085.2 411.0L1082.2 410.9L1079.2 411.1L1076.2 411.4L1073.2 411.6L1070.2 411.5L1067.2 411.3L1064.1 411.1L1061.1 411.2L1058.1 411.3L1055.1 411.2L1052.1 410.9L1049.1 410.7L1046.1 410.7L1043.1 410.6L1040.1 410.5L1037.1 410.3L1034.1 410.5L1031.1 411.0L1028.1 411.7L1025.1 412.2L1022.1 412.4L1019.1 412.5L1016.1 412.5L1013.1 412.5L1010.0 412.2L1007.0 411.7L1004.0 411.5L1001.0 411.7L998.0 412.1L995.0 412.5L992.0 412.8L989.0 413.1L986.0 413.5L983.0 414.0L980.0 414.5Z" fill="#15151A" opacity="0.35"/><text x="980" y="496" fill="#15151A" font-size="34" letter-spacing="2.4" font-family="Menlo, DejaVu Sans Mono, monospace" text-anchor="start">PLANTED</text><text x="1206" y="496" fill="#15151A" font-size="34" letter-spacing="0.4" font-family="Helvetica Neue, Arial, sans-serif" text-anchor="start">must be paid off</text><path d="M980.0 517.3L983.0 518.0L986.0 518.5L989.0 519.0L992.0 519.1L995.0 519.0L998.0 519.3L1001.0 519.7L1004.1 519.7L1007.1 519.6L1010.1 519.5L1013.1 519.6L1016.1 519.4L1019.1 518.9L1022.1 518.6L1025.1 518.8L1028.1 519.2L1031.1 519.6L1034.1 520.0L1037.1 520.5L1040.1 520.7L1043.1 520.5L1046.1 520.1L1049.1 520.1L1052.1 520.3L1055.2 520.2L1058.2 519.9L1061.2 519.7L1064.2 519.6L1067.2 519.3L1070.2 519.0L1073.2 519.2L1076.2 519.7L1079.2 520.2L1082.2 520.3L1085.2 520.4L1088.2 520.6L1091.2 520.7L1094.2 519.7L1097.2 518.7L1100.2 518.6L1103.2 519.3L1106.2 519.7L1109.3 519.5L1112.3 519.5L1115.3 519.6L1118.3 519.4L1121.3 519.3L1124.3 519.6L1127.3 520.3L1130.3 520.8L1133.3 520.8L1136.3 520.5L1139.3 520.3L1142.3 520.0L1145.3 519.5L1148.3 519.2L1151.3 519.3L1154.3 519.4L1157.3 519.3L1160.3 519.1L1163.4 519.2L1166.4 519.5L1169.4 519.6L1172.4 519.5L1175.4 519.6L1178.4 520.0L1181.4 520.1L1184.4 519.7L1187.4 519.3L1190.4 518.9L1193.4 518.5L1196.4 518.0L1199.4 517.9L1202.4 518.3L1205.4 518.8L1208.4 518.8L1211.4 518.6L1214.4 518.7L1217.5 518.9L1220.5 519.0L1223.5 519.1L1226.5 519.2L1229.5 519.4L1232.5 519.1L1235.5 518.5L1238.5 518.2L1241.5 518.2L1244.5 518.2L1247.5 518.2L1250.5 518.4L1253.5 519.0L1256.5 519.5L1259.5 519.6L1262.5 519.6L1265.5 519.6L1268.6 519.7L1271.6 519.6L1274.6 519.5L1277.6 519.6L1280.6 519.7L1283.6 519.3L1286.6 518.7L1289.6 518.4L1292.6 518.6L1295.6 518.9L1298.6 519.2L1301.6 519.5L1304.6 519.9L1307.6 520.0L1310.6 519.6L1313.6 519.2L1316.6 519.1L1319.6 519.1L1322.7 518.7L1325.7 518.3L1328.7 518.2L1331.7 518.2L1334.7 517.9L1337.7 517.5L1340.7 517.5L1343.7 517.8L1346.7 518.1L1349.7 518.3L1352.7 518.5L1355.7 518.8L1358.7 518.6L1361.7 518.0L1364.7 517.4L1367.7 517.3L1370.7 517.5L1373.7 517.4L1376.7 517.3L1379.8 517.4L1382.8 517.5L1385.8 517.5L1388.8 517.5L1391.8 517.9L1394.8 518.5L1397.8 518.9L1400.8 518.8L1403.8 518.8L1406.8 518.8L1409.8 518.6L1412.8 518.0L1415.8 517.7L1418.8 517.8L1421.8 518.0L1424.8 518.1L1427.8 518.3L1430.9 518.6L1433.9 518.8L1436.9 518.7L1439.9 518.6L1442.9 518.8L1445.9 519.3L1448.9 519.4L1451.9 519.0L1454.9 518.4L1457.9 518.0L1460.9 517.5L1463.9 517.1L1466.9 517.0L1469.9 517.3L1472.9 517.6L1475.9 517.5L1478.9 517.4L1481.9 517.5L1485.0 517.6L1488.0 517.3L1491.0 517.0L1494.0 517.0L1497.0 517.0L1500.0 516.6L1503.0 516.0L1506.0 515.5L1509.0 515.0L1509.0 516.1L1506.0 515.8L1503.0 515.6L1500.0 515.4L1497.0 515.3L1494.0 515.1L1491.0 514.7L1487.9 514.5L1484.9 514.5L1481.9 514.6L1478.9 514.8L1475.9 514.8L1472.9 514.6L1469.9 514.4L1466.9 514.5L1463.9 514.7L1460.9 514.9L1457.9 515.1L1454.9 515.4L1451.9 515.8L1448.9 516.1L1445.9 516.0L1442.9 515.6L1439.9 515.2L1436.9 515.1L1433.8 515.3L1430.8 515.4L1427.8 515.3L1424.8 514.9L1421.8 514.5L1418.8 514.3L1415.8 514.4L1412.8 514.4L1409.8 514.3L1406.8 514.3L1403.8 514.5L1400.8 514.9L1397.8 515.1L1394.8 514.9L1391.8 514.5L1388.8 514.2L1385.8 514.3L1382.7 514.5L1379.7 514.7L1376.7 514.7L1373.7 514.5L1370.7 514.3L1367.7 514.2L1364.7 514.0L1361.7 513.8L1358.7 513.7L1355.7 513.8L1352.7 514.1L1349.7 514.2L1346.7 514.1L1343.7 513.9L1340.7 513.8L1337.7 514.0L1334.7 514.3L1331.7 514.6L1328.6 514.9L1325.6 515.2L1322.6 515.6L1319.6 515.9L1316.6 515.9L1313.6 515.6L1310.6 515.3L1307.6 515.3L1304.6 515.6L1301.6 515.9L1298.6 515.8L1295.6 515.3L1292.6 514.9L1289.6 514.7L1286.6 514.8L1283.6 514.9L1280.6 515.0L1277.6 515.1L1274.5 515.3L1271.5 515.6L1268.5 515.8L1265.5 515.7L1262.5 515.4L1259.5 515.2L1256.5 515.3L1253.5 515.5L1250.5 515.6L1247.5 515.5L1244.5 515.2L1241.5 514.9L1238.5 514.7L1235.5 514.5L1232.5 514.2L1229.5 514.2L1226.5 514.4L1223.4 514.6L1220.4 514.7L1217.4 514.4L1214.4 514.0L1211.4 513.9L1208.4 514.1L1205.4 514.5L1202.4 514.8L1199.4 514.9L1196.4 515.0L1193.4 515.2L1190.4 515.5L1187.4 515.5L1184.4 515.3L1181.4 515.1L1178.4 515.1L1175.4 515.4L1172.4 515.7L1169.3 515.6L1166.3 515.1L1163.3 514.7L1160.3 514.4L1157.3 514.6L1154.3 514.8L1151.3 515.0L1148.3 515.2L1145.3 515.4L1142.3 515.7L1139.3 515.8L1136.3 515.8L1133.3 515.7L1130.3 515.7L1127.3 515.9L1124.3 516.2L1121.3 516.5L1118.3 516.6L1115.3 516.7L1112.2 516.9L1109.2 516.5L1106.2 516.0L1103.2 515.5L1100.2 515.1L1097.2 515.2L1094.2 515.5L1091.2 515.5L1088.2 515.3L1085.2 514.9L1082.2 514.7L1079.2 514.9L1076.2 515.4L1073.2 515.7L1070.2 515.7L1067.2 515.6L1064.2 515.6L1061.1 515.8L1058.1 515.8L1055.1 515.7L1052.1 515.5L1049.1 515.5L1046.1 515.7L1043.1 515.9L1040.1 515.7L1037.1 515.2L1034.1 514.8L1031.1 514.6L1028.1 514.7L1025.1 515.0L1022.1 515.2L1019.1 515.4L1016.1 515.7L1013.1 515.9L1010.0 516.1L1007.0 516.1L1004.0 516.2L1001.0 516.5L998.0 516.9L995.0 517.3L992.0 517.5L989.0 517.3L986.0 517.2L983.0 517.2L980.0 517.7Z" fill="#15151A" opacity="0.35"/><text x="980" y="600" fill="#15151A" font-size="34" letter-spacing="2.4" font-family="Menlo, DejaVu Sans Mono, monospace" text-anchor="start">A SUBPLOT</text><text x="1206" y="600" fill="#15151A" font-size="34" letter-spacing="0.4" font-family="Helvetica Neue, Arial, sans-serif" text-anchor="start">serves the spine, or goes</text><path d="M980.0 622.8L983.0 623.4L986.0 623.7L989.0 623.5L992.0 623.2L995.0 623.3L998.0 623.4L1001.0 623.2L1004.1 623.4L1007.1 623.8L1010.1 623.7L1013.1 623.5L1016.1 623.5L1019.1 623.5L1022.1 623.2L1025.1 623.3L1028.1 623.8L1031.1 624.0L1034.1 624.1L1037.1 624.4L1040.1 624.4L1043.1 623.9L1046.1 623.5L1049.1 623.3L1052.1 623.1L1055.1 622.8L1058.2 623.0L1061.2 623.3L1064.2 623.2L1067.2 623.3L1070.2 623.6L1073.2 623.6L1076.2 623.5L1079.2 623.8L1082.2 624.3L1085.2 624.4L1088.2 624.6L1091.2 624.9L1094.2 624.9L1097.2 624.4L1100.2 624.1L1103.2 624.0L1106.2 623.6L1109.2 623.4L1112.3 623.7L1115.3 624.1L1118.3 624.1L1121.3 624.4L1124.3 624.8L1127.3 624.7L1130.3 624.4L1133.3 624.4L1136.3 624.2L1139.3 623.8L1142.3 623.5L1145.3 623.6L1148.3 623.4L1151.3 623.1L1154.3 623.1L1157.3 623.1L1160.3 622.8L1163.3 622.5L1166.4 622.7L1169.4 622.7L1172.4 622.5L1175.4 622.9L1178.4 623.3L1181.4 623.3L1184.4 623.3L1187.4 623.6L1190.4 623.4L1193.4 623.0L1196.4 622.8L1199.4 622.9L1202.4 622.7L1205.4 622.6L1208.4 623.0L1211.4 623.1L1214.4 622.9L1217.5 622.9L1220.5 623.1L1223.5 622.9L1226.5 622.9L1229.5 623.4L1232.5 623.8L1235.5 623.8L1238.5 623.9L1241.5 624.1L1244.5 623.7L1247.5 623.0L1250.5 622.7L1253.5 622.5L1256.5 622.1L1259.5 622.2L1262.5 622.7L1265.5 623.0L1268.6 623.1L1271.6 623.4L1274.6 623.6L1277.6 623.4L1280.6 623.2L1283.6 623.4L1286.6 623.4L1289.6 623.1L1292.6 623.2L1295.6 623.3L1298.6 622.9L1301.6 622.6L1304.6 622.6L1307.6 622.5L1310.6 622.1L1313.6 622.2L1316.6 622.5L1319.6 622.2L1322.6 621.7L1325.7 621.9L1328.7 622.4L1331.7 622.6L1334.7 622.5L1337.7 622.5L1340.7 622.2L1343.7 621.8L1346.7 621.9L1349.7 621.9L1352.7 621.7L1355.7 621.6L1358.7 621.8L1361.7 621.4L1364.7 620.8L1367.7 620.5L1370.7 620.2L1373.7 620.6L1376.7 621.2L1379.8 622.3L1382.8 623.1L1385.8 623.1L1388.8 623.2L1391.8 623.2L1394.8 622.7L1397.8 622.2L1400.8 622.1L1403.8 622.0L1406.8 621.9L1409.8 622.2L1412.8 622.7L1415.8 622.8L1418.8 622.8L1421.8 623.0L1424.8 623.0L1427.9 622.6L1430.9 622.6L1433.9 622.8L1436.9 622.7L1439.9 622.5L1442.9 622.5L1445.9 622.3L1448.9 621.6L1451.9 621.2L1454.9 621.1L1457.9 620.8L1460.9 620.6L1463.9 620.9L1466.9 621.3L1469.9 621.2L1472.9 621.2L1475.9 621.4L1478.9 621.2L1481.9 620.8L1485.0 620.8L1488.0 620.9L1491.0 620.6L1494.0 620.5L1497.0 620.7L1500.0 620.6L1503.0 620.2L1506.0 620.0L1509.0 619.7L1509.0 619.7L1506.0 619.6L1503.0 619.6L1500.0 619.6L1497.0 619.8L1494.0 619.6L1491.0 619.1L1487.9 618.7L1484.9 618.7L1481.9 618.8L1478.9 618.7L1475.9 618.6L1472.9 618.8L1469.9 618.7L1466.9 618.3L1463.9 617.9L1460.9 617.9L1457.9 618.0L1454.9 617.9L1451.9 617.9L1448.9 618.1L1445.9 618.3L1442.9 618.2L1439.9 618.1L1436.9 618.4L1433.8 619.0L1430.8 619.3L1427.8 619.5L1424.8 619.8L1421.8 620.1L1418.8 619.8L1415.8 619.4L1412.8 619.4L1409.8 619.5L1406.8 619.5L1403.8 619.3L1400.8 619.4L1397.8 619.4L1394.8 619.1L1391.8 618.6L1388.8 618.4L1385.8 618.5L1382.7 618.4L1379.7 618.1L1376.7 618.1L1373.7 618.2L1370.7 618.1L1367.7 617.7L1364.7 617.7L1361.7 618.1L1358.7 618.4L1355.7 618.5L1352.7 618.7L1349.7 619.0L1346.7 619.0L1343.7 618.6L1340.7 618.4L1337.7 618.6L1334.7 618.7L1331.7 618.6L1328.6 618.6L1325.6 618.8L1322.6 618.8L1319.6 618.5L1316.6 618.3L1313.6 618.5L1310.6 618.7L1307.6 618.7L1304.6 618.6L1301.6 618.8L1298.6 618.9L1295.6 618.7L1292.6 618.6L1289.6 618.9L1286.6 619.4L1283.6 619.5L1280.6 619.6L1277.6 619.9L1274.6 620.0L1271.5 619.7L1268.5 619.3L1265.5 619.3L1262.5 619.4L1259.5 619.3L1256.5 619.1L1253.5 619.1L1250.5 619.2L1247.5 618.9L1244.5 618.6L1241.5 618.6L1238.5 618.9L1235.5 619.0L1232.5 618.9L1229.5 618.9L1226.5 619.1L1223.4 618.9L1220.4 618.6L1217.4 618.7L1214.4 619.2L1211.4 619.4L1208.4 619.5L1205.4 619.6L1202.4 619.8L1199.4 619.6L1196.4 619.1L1193.4 618.9L1190.4 619.0L1187.4 619.0L1184.4 618.7L1181.4 618.6L1178.4 618.6L1175.4 618.4L1172.3 618.0L1169.3 618.0L1166.3 618.3L1163.3 618.6L1160.3 618.6L1157.3 618.7L1154.3 618.9L1151.3 619.0L1148.3 618.7L1145.3 618.7L1142.3 619.2L1139.3 619.7L1136.3 620.0L1133.3 620.2L1130.3 620.5L1127.3 620.5L1124.3 620.2L1121.3 619.9L1118.3 620.1L1115.2 620.2L1112.2 620.1L1109.2 619.9L1106.2 619.8L1103.2 619.7L1100.2 619.3L1097.2 618.9L1094.2 619.1L1091.2 619.4L1088.2 619.5L1085.2 619.4L1082.2 619.4L1079.2 619.4L1076.2 619.1L1073.2 618.7L1070.2 618.8L1067.2 619.2L1064.1 619.4L1061.1 619.4L1058.1 619.6L1055.1 619.7L1052.1 619.4L1049.1 618.9L1046.1 618.9L1043.1 619.1L1040.1 619.1L1037.1 619.0L1034.1 619.0L1031.1 619.2L1028.1 619.0L1025.1 618.7L1022.1 618.8L1019.1 619.4L1016.1 619.9L1013.1 620.1L1010.1 620.4L1007.0 620.7L1004.0 620.7L1001.0 620.5L998.0 620.5L995.0 621.0L992.0 621.6L989.0 621.8L986.0 622.1L983.0 622.6L980.0 623.0Z" fill="#15151A" opacity="0.35"/><text x="980" y="704" fill="#15151A" font-size="34" letter-spacing="2.4" font-family="Menlo, DejaVu Sans Mono, monospace" text-anchor="start">FINISHED?</text><text x="1206" y="704" fill="#15151A" font-size="34" letter-spacing="0.4" font-family="Helvetica Neue, Arial, sans-serif" text-anchor="start">ask how it gets played</text><path d="M980.0 726.9L983.0 727.0L986.0 727.0L989.0 727.1L992.0 726.9L995.0 726.6L998.0 726.6L1001.0 726.9L1004.0 726.9L1007.1 726.9L1010.1 727.3L1013.1 727.7L1016.1 727.6L1019.1 727.5L1022.1 727.7L1025.1 727.6L1028.1 727.3L1031.1 727.3L1034.1 727.7L1037.1 727.7L1040.1 727.7L1043.1 728.0L1046.1 728.2L1049.1 728.0L1052.1 727.7L1055.1 727.8L1058.2 727.7L1061.2 727.3L1064.2 727.2L1067.2 727.5L1070.2 727.6L1073.2 727.6L1076.2 727.9L1079.2 728.3L1082.2 728.3L1085.2 728.2L1088.2 728.5L1091.2 728.6L1094.2 728.2L1097.2 728.0L1100.2 728.0L1103.2 727.9L1106.2 727.5L1109.3 727.4L1112.3 727.7L1115.3 727.7L1118.3 727.6L1121.3 727.8L1124.3 728.1L1127.3 728.0L1130.3 727.8L1133.3 728.0L1136.3 728.1L1139.3 727.9L1142.3 728.0L1145.3 728.4L1148.3 728.5L1151.3 728.4L1154.3 728.4L1157.3 728.5L1160.3 728.0L1163.4 727.4L1166.4 727.1L1169.4 726.8L1172.4 726.2L1175.4 726.0L1178.4 726.1L1181.4 726.2L1184.4 726.1L1187.4 726.3L1190.4 726.8L1193.4 726.9L1196.4 726.9L1199.4 727.2L1202.4 727.5L1205.4 727.3L1208.4 727.1L1211.4 726.8L1214.4 726.3L1217.4 726.1L1220.5 726.4L1223.5 727.0L1226.5 727.2L1229.5 726.9L1232.5 726.9L1235.5 727.0L1238.5 726.8L1241.5 726.4L1244.5 726.5L1247.5 726.7L1250.5 726.7L1253.5 726.9L1256.5 727.4L1259.5 727.8L1262.5 727.8L1265.5 727.9L1268.6 728.0L1271.6 727.7L1274.6 727.2L1277.6 727.0L1280.6 727.0L1283.6 726.6L1286.6 726.4L1289.6 726.6L1292.6 726.8L1295.6 726.7L1298.6 726.7L1301.6 727.0L1304.6 727.1L1307.6 726.9L1310.6 727.0L1313.6 727.2L1316.6 727.1L1319.6 726.8L1322.7 726.9L1325.7 727.0L1328.7 726.7L1331.7 726.5L1334.7 726.6L1337.7 726.5L1340.7 726.1L1343.7 725.8L1346.7 725.8L1349.7 725.4L1352.7 725.0L1355.7 725.0L1358.7 725.2L1361.7 725.3L1364.7 725.4L1367.7 726.0L1370.7 726.5L1373.7 726.5L1376.8 726.6L1379.8 726.8L1382.8 726.7L1385.8 726.4L1388.8 726.3L1391.8 726.5L1394.8 726.4L1397.8 726.3L1400.8 726.5L1403.8 726.7L1406.8 726.5L1409.8 726.3L1412.8 726.4L1415.8 726.3L1418.8 725.9L1421.8 725.8L1424.8 726.0L1427.8 726.0L1430.9 725.8L1433.9 726.1L1436.9 726.4L1439.9 726.4L1442.9 726.4L1445.9 726.7L1448.9 726.9L1451.9 726.6L1454.9 726.3L1457.9 726.3L1460.9 726.1L1463.9 725.5L1466.9 725.4L1469.9 725.5L1472.9 725.4L1475.9 725.2L1478.9 725.4L1481.9 725.5L1485.0 725.1L1488.0 724.8L1491.0 724.8L1494.0 724.6L1497.0 724.1L1500.0 724.0L1503.0 724.2L1506.0 724.2L1509.0 723.7L1509.0 723.3L1506.0 723.2L1503.0 723.1L1500.0 722.8L1497.0 722.4L1494.0 722.3L1491.0 722.4L1487.9 722.4L1484.9 722.5L1481.9 722.8L1478.9 723.2L1475.9 723.4L1472.9 723.2L1469.9 722.9L1466.9 722.9L1463.9 723.3L1460.9 723.6L1457.9 723.6L1454.9 723.5L1451.9 723.3L1448.9 723.1L1445.9 722.8L1442.9 722.4L1439.9 722.4L1436.9 722.7L1433.8 723.0L1430.8 722.9L1427.8 722.6L1424.8 722.3L1421.8 722.3L1418.8 722.4L1415.8 722.5L1412.8 722.6L1409.8 722.9L1406.8 723.1L1403.8 723.1L1400.8 722.8L1397.8 722.7L1394.8 722.9L1391.8 723.3L1388.8 723.4L1385.8 723.2L1382.8 723.0L1379.7 722.9L1376.7 722.9L1373.7 722.6L1370.7 722.4L1367.7 722.4L1364.7 722.5L1361.7 722.3L1358.7 721.8L1355.7 721.3L1352.7 721.3L1349.7 721.6L1346.7 721.9L1343.7 721.9L1340.7 722.0L1337.7 722.2L1334.7 722.3L1331.7 722.3L1328.6 722.4L1325.6 722.9L1322.6 723.6L1319.6 724.0L1316.6 724.0L1313.6 723.7L1310.6 723.4L1307.6 723.4L1304.6 723.4L1301.6 723.5L1298.6 723.7L1295.6 724.1L1292.6 724.3L1289.6 724.2L1286.6 723.6L1283.6 723.0L1280.6 722.8L1277.6 722.9L1274.5 723.0L1271.5 723.0L1268.5 723.1L1265.5 723.2L1262.5 723.3L1259.5 723.3L1256.5 723.4L1253.5 723.7L1250.5 723.9L1247.5 723.9L1244.5 723.5L1241.5 723.1L1238.5 723.1L1235.5 723.3L1232.5 723.3L1229.5 723.1L1226.5 722.9L1223.4 722.8L1220.4 722.7L1217.4 722.4L1214.4 722.2L1211.4 722.4L1208.4 722.8L1205.4 723.0L1202.4 722.7L1199.4 722.3L1196.4 722.2L1193.4 722.4L1190.4 722.6L1187.4 722.7L1184.4 722.9L1181.4 723.2L1178.4 723.3L1175.4 723.0L1172.4 722.7L1169.3 722.7L1166.3 723.1L1163.3 723.5L1160.3 723.5L1157.3 723.4L1154.3 723.3L1151.3 723.3L1148.3 723.1L1145.3 722.9L1142.3 723.0L1139.3 723.4L1136.3 723.7L1133.3 723.7L1130.3 723.5L1127.3 723.4L1124.3 723.6L1121.3 723.9L1118.3 724.1L1115.2 724.1L1112.2 724.2L1109.2 724.2L1106.2 724.0L1103.2 723.7L1100.2 723.5L1097.2 723.6L1094.2 723.8L1091.2 723.6L1088.2 723.1L1085.2 722.7L1082.2 722.6L1079.2 722.7L1076.2 722.8L1073.2 722.9L1070.2 723.1L1067.2 723.4L1064.1 723.5L1061.1 723.2L1058.1 723.0L1055.1 723.2L1052.1 723.7L1049.1 724.1L1046.1 724.0L1043.1 723.8L1040.1 723.6L1037.1 723.4L1034.1 723.1L1031.1 722.9L1028.1 723.0L1025.1 723.3L1022.1 723.5L1019.1 723.3L1016.1 723.0L1013.1 722.9L1010.0 723.2L1007.0 723.6L1004.0 723.9L1001.0 724.2L998.0 724.6L995.0 725.0L992.0 725.1L989.0 725.2L986.0 725.5L983.0 726.2L980.0 727.1Z" fill="#15151A" opacity="0.35"/><text x="88" y="176" fill="#15151A" font-size="96" letter-spacing="-1.2" font-family="Helvetica Neue, Arial, sans-serif" text-anchor="start" font-weight="700">SCRIPT CHECK</text><path d="M88.0 209.2L91.0 209.8L94.0 210.1L97.0 210.4L100.0 210.7L103.0 210.9L106.0 211.0L109.0 211.1L112.0 211.1L115.0 211.1L118.0 211.2L121.1 211.3L124.1 211.5L127.1 211.7L130.1 211.9L133.1 212.0L136.1 212.1L139.1 212.2L142.1 212.2L145.1 212.2L148.1 212.3L151.1 212.4L154.1 212.5L157.1 212.7L160.1 212.8L163.1 212.9L166.1 213.0L169.1 212.9L172.1 212.8L175.1 212.7L178.1 212.6L181.1 212.5L184.1 212.4L187.1 212.4L190.2 212.4L193.2 212.4L196.2 212.3L199.2 212.2L202.2 212.1L205.2 212.0L208.2 211.9L211.2 211.8L214.2 211.9L217.2 212.0L220.2 212.2L223.2 212.3L226.2 212.5L229.2 212.6L232.2 212.7L235.2 212.7L238.2 212.7L241.2 212.8L244.2 212.9L247.2 213.0L250.2 213.2L253.2 213.3L256.2 213.4L259.3 213.4L262.3 213.3L265.3 213.2L268.3 213.1L271.3 213.0L274.3 212.9L277.3 212.9L280.3 212.9L283.3 213.0L286.3 213.1L289.3 213.1L292.3 213.1L295.3 213.0L298.3 213.0L301.3 213.0L304.3 213.0L307.3 213.2L310.3 213.3L313.3 213.5L316.3 213.7L319.3 213.9L322.3 214.0L325.3 214.0L328.4 214.0L331.4 213.9L334.4 213.9L337.4 213.9L340.4 213.9L343.4 213.9L346.4 214.0L349.4 213.9L352.4 213.8L355.4 213.6L358.4 213.4L361.4 213.2L364.4 213.0L367.4 212.8L370.4 212.7L373.4 212.7L376.4 212.7L379.4 212.7L382.4 212.6L385.4 212.6L388.4 212.4L391.4 212.3L394.4 212.2L397.4 212.2L400.4 212.3L403.5 212.4L406.5 212.5L409.5 212.6L412.5 212.7L415.5 212.7L418.5 212.6L421.5 212.6L424.5 212.5L427.5 212.4L430.5 212.4L433.5 212.4L436.5 212.5L439.5 212.6L442.5 212.6L445.5 212.6L448.5 212.5L451.5 212.4L454.5 212.3L457.5 212.2L460.5 212.2L463.5 212.2L466.5 212.3L469.5 212.4L472.5 212.4L475.6 212.5L478.6 212.4L481.6 212.3L484.6 212.2L487.6 212.0L490.6 211.9L493.6 211.9L496.6 211.9L499.6 211.9L502.6 211.9L505.6 211.8L508.6 211.7L511.6 211.5L514.6 211.3L517.6 211.1L520.6 211.0L523.6 210.9L526.6 210.9L529.6 210.9L532.6 211.0L535.6 211.1L538.6 211.1L541.6 211.1L544.6 211.0L547.7 211.0L550.7 211.0L553.7 211.0L556.7 211.1L559.7 211.3L562.7 211.5L565.7 211.6L568.7 211.7L571.7 211.7L574.7 211.7L577.7 211.6L580.7 211.5L583.7 211.5L586.7 211.5L589.7 211.5L592.7 211.6L595.7 211.6L598.7 211.6L601.7 211.6L604.7 211.5L607.7 211.4L610.7 211.3L613.7 211.2L616.8 211.2L619.8 211.3L622.8 211.5L625.8 211.6L628.8 211.7L631.8 211.8L634.8 211.8L637.8 211.8L640.8 211.7L643.8 211.7L646.8 211.7L649.8 211.7L652.8 211.8L655.8 211.9L658.8 211.9L661.8 211.9L664.8 211.8L667.8 211.6L670.8 211.4L673.8 211.2L676.8 211.0L679.8 211.0L682.8 210.9L685.8 210.9L688.9 210.9L691.9 210.9L694.9 210.8L697.9 210.7L700.9 210.6L703.9 210.5L706.9 210.4L709.9 210.5L712.9 210.6L715.9 210.7L718.9 210.9L721.9 211.0L724.9 211.1L727.9 211.1L730.9 211.1L733.9 211.1L736.9 211.1L739.9 211.1L742.9 211.2L745.9 211.3L748.9 211.4L751.9 211.5L754.9 211.5L758.0 211.5L761.0 211.5L764.0 211.4L767.0 211.4L770.0 211.4L773.0 211.5L776.0 211.6L779.0 211.8L782.0 212.0L785.0 212.1L788.0 212.2L791.0 212.2L794.0 212.2L797.0 212.3L800.0 212.3L803.0 212.4L806.0 212.5L809.0 212.6L812.0 212.7L815.0 212.8L818.0 212.7L821.0 212.6L824.0 212.4L827.0 212.2L830.1 212.0L833.1 211.8L836.1 211.6L839.1 211.5L842.1 211.4L845.1 211.3L848.1 211.2L851.1 210.9L854.1 210.7L857.1 210.5L860.1 210.3L863.1 210.2L866.1 210.2L869.1 210.2L872.1 210.3L875.1 210.4L878.1 210.5L881.1 210.5L884.1 210.5L887.1 210.4L890.1 210.4L893.1 210.4L896.1 210.4L899.1 210.5L902.2 210.7L905.2 210.7L908.2 210.8L911.2 210.8L914.2 210.7L917.2 210.6L920.2 210.4L923.2 210.3L926.2 210.2L929.2 210.2L932.2 210.2L935.2 210.3L938.2 210.3L941.2 210.3L944.2 210.3L947.2 210.2L950.2 210.2L953.2 210.1L956.2 210.1L959.2 210.2L962.2 210.3L965.2 210.5L968.2 210.6L971.2 210.7L974.3 210.7L977.3 210.7L980.3 210.6L983.3 210.5L986.3 210.4L989.3 210.4L992.3 210.4L995.3 210.5L998.3 210.5L1001.3 210.5L1004.3 210.4L1007.3 210.3L1010.3 210.1L1013.3 209.9L1016.3 209.8L1019.3 209.7L1022.3 209.7L1025.3 209.7L1028.3 209.7L1031.3 209.8L1034.3 209.8L1037.3 209.7L1040.3 209.6L1043.3 209.4L1046.4 209.3L1049.4 209.3L1052.4 209.3L1055.4 209.3L1058.4 209.4L1061.4 209.5L1064.4 209.4L1067.4 209.4L1070.4 209.3L1073.4 209.1L1076.4 209.0L1079.4 208.9L1082.4 208.9L1085.4 209.0L1088.4 209.1L1091.4 209.2L1094.4 209.3L1097.4 209.3L1100.4 209.3L1103.4 209.3L1106.4 209.3L1109.4 209.3L1112.4 209.4L1115.4 209.6L1118.5 209.7L1121.5 209.9L1124.5 210.1L1127.5 210.2L1130.5 210.2L1133.5 210.1L1136.5 210.0L1139.5 210.0L1142.5 209.9L1145.5 209.9L1148.5 209.9L1151.5 209.9L1154.5 209.9L1157.5 209.8L1160.5 209.7L1163.5 209.5L1166.5 209.3L1169.5 209.1L1172.5 209.0L1175.5 208.9L1178.5 209.0L1181.5 209.0L1184.5 209.1L1187.6 209.2L1190.6 209.2L1193.6 209.2L1196.6 209.2L1199.6 209.2L1202.6 209.2L1205.6 209.3L1208.6 209.5L1211.6 209.7L1214.6 209.8L1217.6 210.0L1220.6 210.1L1223.6 210.1L1226.6 210.0L1229.6 209.9L1232.6 209.9L1235.6 209.8L1238.6 209.9L1241.6 209.9L1244.6 210.0L1247.6 210.1L1250.6 210.1L1253.6 210.0L1256.7 210.0L1259.7 209.9L1262.7 209.8L1265.7 209.8L1268.7 209.8L1271.7 209.9L1274.7 210.1L1277.7 210.2L1280.7 210.3L1283.7 210.4L1286.7 210.4L1289.7 210.3L1292.7 210.2L1295.7 210.2L1298.7 210.2L1301.7 210.2L1304.7 210.2L1307.7 210.2L1310.7 210.2L1313.7 210.1L1316.7 209.9L1319.7 209.7L1322.7 209.5L1325.7 209.3L1328.7 209.1L1331.8 209.0L1334.8 209.0L1337.8 209.0L1340.8 209.0L1343.8 208.9L1346.8 208.8L1349.8 208.7L1352.8 208.6L1355.8 208.5L1358.8 208.5L1361.8 208.5L1364.8 208.5L1367.8 208.6L1370.8 208.7L1373.8 208.8L1376.8 208.8L1379.8 208.7L1382.8 208.6L1385.8 208.4L1388.8 208.3L1391.8 208.3L1394.8 208.2L1397.8 208.2L1400.8 208.3L1403.9 208.2L1406.9 208.2L1409.9 208.1L1412.9 207.9L1415.9 207.8L1418.9 207.7L1421.9 207.6L1424.9 207.7L1427.9 207.8L1430.9 207.9L1433.9 208.0L1436.9 208.1L1439.9 208.2L1442.9 208.2L1445.9 208.1L1448.9 208.1L1451.9 208.1L1454.9 208.2L1457.9 208.3L1460.9 208.4L1463.9 208.4L1466.9 208.4L1469.9 208.3L1473.0 208.2L1476.0 207.9L1479.0 207.7L1482.0 207.4L1485.0 207.2L1488.0 207.0L1491.0 206.9L1494.0 206.7L1497.0 206.5L1500.0 206.3L1503.0 206.0L1506.0 205.6L1509.0 205.1L1509.0 205.1L1506.0 204.7L1503.0 204.5L1500.0 204.4L1497.0 204.4L1494.0 204.5L1491.0 204.7L1488.0 204.9L1485.0 205.1L1482.0 205.3L1479.0 205.4L1475.9 205.4L1472.9 205.4L1469.9 205.4L1466.9 205.5L1463.9 205.5L1460.9 205.5L1457.9 205.5L1454.9 205.5L1451.9 205.4L1448.9 205.3L1445.9 205.0L1442.9 204.8L1439.9 204.6L1436.9 204.4L1433.9 204.2L1430.9 204.2L1427.9 204.2L1424.9 204.3L1421.9 204.3L1418.9 204.4L1415.9 204.3L1412.9 204.3L1409.9 204.2L1406.8 204.1L1403.8 204.0L1400.8 203.9L1397.8 203.9L1394.8 203.9L1391.8 203.9L1388.8 203.9L1385.8 203.9L1382.8 203.8L1379.8 203.7L1376.8 203.7L1373.8 203.6L1370.8 203.7L1367.8 203.8L1364.8 204.0L1361.8 204.2L1358.8 204.4L1355.8 204.6L1352.8 204.7L1349.8 204.8L1346.8 204.8L1343.8 204.7L1340.8 204.6L1337.7 204.6L1334.7 204.6L1331.7 204.5L1328.7 204.5L1325.7 204.5L1322.7 204.5L1319.7 204.4L1316.7 204.2L1313.7 204.1L1310.7 204.0L1307.7 204.0L1304.7 204.0L1301.7 204.1L1298.7 204.3L1295.7 204.4L1292.7 204.5L1289.7 204.6L1286.7 204.6L1283.7 204.5L1280.7 204.4L1277.7 204.3L1274.7 204.2L1271.7 204.2L1268.7 204.3L1265.6 204.3L1262.6 204.4L1259.6 204.5L1256.6 204.6L1253.6 204.7L1250.6 204.7L1247.6 204.8L1244.6 204.8L1241.6 205.0L1238.6 205.1L1235.6 205.3L1232.6 205.5L1229.6 205.7L1226.6 205.7L1223.6 205.7L1220.6 205.6L1217.6 205.4L1214.6 205.1L1211.6 204.9L1208.6 204.7L1205.6 204.6L1202.6 204.5L1199.6 204.4L1196.5 204.3L1193.5 204.2L1190.5 204.1L1187.5 204.0L1184.5 203.8L1181.5 203.7L1178.5 203.6L1175.5 203.6L1172.5 203.7L1169.5 203.8L1166.5 203.8L1163.5 203.9L1160.5 203.8L1157.5 203.7L1154.5 203.6L1151.5 203.5L1148.5 203.4L1145.5 203.3L1142.5 203.4L1139.5 203.5L1136.5 203.7L1133.5 203.9L1130.5 204.0L1127.5 204.2L1124.4 204.2L1121.4 204.3L1118.4 204.3L1115.4 204.4L1112.4 204.4L1109.4 204.5L1106.4 204.6L1103.4 204.6L1100.4 204.6L1097.4 204.5L1094.4 204.4L1091.4 204.1L1088.4 203.9L1085.4 203.7L1082.4 203.5L1079.4 203.4L1076.4 203.4L1073.4 203.4L1070.4 203.5L1067.4 203.6L1064.4 203.7L1061.4 203.7L1058.4 203.7L1055.3 203.7L1052.3 203.8L1049.3 203.8L1046.3 203.9L1043.3 204.0L1040.3 204.2L1037.3 204.3L1034.3 204.4L1031.3 204.4L1028.3 204.4L1025.3 204.3L1022.3 204.3L1019.3 204.3L1016.3 204.3L1013.3 204.5L1010.3 204.6L1007.3 204.8L1004.3 205.0L1001.3 205.2L998.3 205.2L995.3 205.2L992.3 205.1L989.3 205.0L986.3 204.9L983.2 204.8L980.2 204.7L977.2 204.7L974.2 204.6L971.2 204.5L968.2 204.3L965.2 204.2L962.2 204.0L959.2 203.8L956.2 203.7L953.2 203.6L950.2 203.7L947.2 203.8L944.2 204.0L941.2 204.2L938.2 204.4L935.2 204.5L932.2 204.5L929.2 204.5L926.2 204.5L923.2 204.5L920.2 204.5L917.2 204.5L914.2 204.6L911.1 204.7L908.1 204.8L905.1 204.8L902.1 204.8L899.1 204.8L896.1 204.8L893.1 204.8L890.1 204.9L887.1 205.0L884.1 205.2L881.1 205.4L878.1 205.6L875.1 205.7L872.1 205.8L869.1 205.8L866.1 205.7L863.1 205.6L860.1 205.5L857.1 205.3L854.1 205.3L851.1 205.2L848.1 205.2L845.1 205.3L842.1 205.3L839.0 205.3L836.0 205.2L833.0 205.2L830.0 205.2L827.0 205.2L824.0 205.3L821.0 205.4L818.0 205.6L815.0 205.8L812.0 205.9L809.0 206.0L806.0 206.0L803.0 205.9L800.0 205.8L797.0 205.7L794.0 205.6L791.0 205.6L788.0 205.8L785.0 206.1L782.0 206.3L779.0 206.6L776.0 206.8L773.0 207.0L770.0 207.0L766.9 206.8L763.9 206.6L760.9 206.4L757.9 206.3L754.9 206.2L751.9 206.1L748.9 206.1L745.9 206.0L742.9 205.9L739.9 205.7L736.9 205.5L733.9 205.2L730.9 204.9L727.9 204.8L724.9 204.6L721.9 204.6L718.9 204.6L715.9 204.6L712.9 204.7L709.9 204.7L706.9 204.6L703.9 204.6L700.9 204.6L697.8 204.6L694.8 204.8L691.8 205.1L688.8 205.4L685.8 205.6L682.8 205.9L679.8 206.1L676.8 206.2L673.8 206.4L670.8 206.5L667.8 206.7L664.8 206.9L661.8 206.9L658.8 206.8L655.8 206.7L652.8 206.6L649.8 206.5L646.8 206.4L643.8 206.3L640.8 206.2L637.8 206.0L634.8 205.8L631.8 205.6L628.8 205.5L625.7 205.5L622.7 205.4L619.7 205.4L616.7 205.3L613.7 205.1L610.7 205.0L607.7 204.7L604.7 204.6L601.7 204.4L598.7 204.4L595.7 204.4L592.7 204.5L589.7 204.7L586.7 204.9L583.7 205.0L580.7 205.1L577.7 205.2L574.7 205.2L571.7 205.2L568.7 205.2L565.7 205.2L562.7 205.2L559.7 205.3L556.6 205.4L553.6 205.4L550.6 205.4L547.6 205.4L544.6 205.3L541.6 205.2L538.6 205.1L535.6 205.1L532.6 205.2L529.6 205.3L526.6 205.4L523.6 205.5L520.6 205.6L517.6 205.6L514.6 205.5L511.6 205.4L508.6 205.2L505.6 205.1L502.6 204.9L499.6 204.8L496.6 204.8L493.6 204.8L490.6 204.7L487.5 204.7L484.5 204.6L481.5 204.6L478.5 204.5L475.5 204.5L472.5 204.6L469.5 204.7L466.5 204.9L463.5 205.2L460.5 205.4L457.5 205.6L454.5 205.8L451.5 205.9L448.5 205.9L445.5 205.9L442.5 205.8L439.5 205.8L436.5 205.8L433.5 205.8L430.5 205.9L427.5 206.0L424.5 206.1L421.5 206.2L418.5 206.2L415.5 206.2L412.4 206.2L409.4 206.2L406.4 206.3L403.4 206.4L400.4 206.5L397.4 206.7L394.4 206.8L391.4 206.9L388.4 206.8L385.4 206.7L382.4 206.6L379.4 206.4L376.4 206.2L373.4 206.2L370.4 206.1L367.4 206.2L364.4 206.2L361.4 206.3L358.4 206.3L355.4 206.4L352.4 206.4L349.4 206.4L346.4 206.4L343.4 206.4L340.3 206.5L337.3 206.6L334.3 206.8L331.3 206.9L328.3 206.9L325.3 206.9L322.3 206.8L319.3 206.6L316.3 206.4L313.3 206.3L310.3 206.2L307.3 206.1L304.3 206.2L301.3 206.2L298.3 206.3L295.3 206.4L292.3 206.5L289.3 206.5L286.3 206.5L283.3 206.4L280.3 206.4L277.3 206.4L274.3 206.4L271.2 206.4L268.2 206.5L265.2 206.4L262.2 206.4L259.2 206.2L256.2 206.0L253.2 205.8L250.2 205.6L247.2 205.5L244.2 205.4L241.2 205.5L238.2 205.6L235.2 205.8L232.2 206.0L229.2 206.1L226.2 206.2L223.2 206.3L220.2 206.3L217.2 206.3L214.2 206.4L211.2 206.5L208.2 206.6L205.2 206.8L202.2 206.9L199.1 207.0L196.1 207.0L193.1 207.0L190.1 206.9L187.1 206.9L184.1 206.9L181.1 206.9L178.1 207.1L175.1 207.3L172.1 207.5L169.1 207.7L166.1 207.8L163.1 207.9L160.1 207.9L157.1 207.9L154.1 207.8L151.1 207.7L148.1 207.7L145.1 207.6L142.1 207.6L139.1 207.6L136.1 207.6L133.1 207.5L130.1 207.4L127.0 207.3L124.0 207.2L121.0 207.2L118.0 207.2L115.0 207.4L112.0 207.6L109.0 207.9L106.0 208.2L103.0 208.4L100.0 208.6L97.0 208.8L94.0 208.9L91.0 209.1L88.0 209.5Z" fill="#15151A"/><text x="88" y="258" fill="#15151A" font-size="27" letter-spacing="1.0" font-family="Helvetica Neue, Arial, sans-serif" text-anchor="start">a scene is written for one person and one thing; everything else is support</text><text x="64" y="842" fill="#15151A" font-size="15" letter-spacing="5.0" font-family="Menlo, DejaVu Sans Mono, monospace" text-anchor="start">SCRIPT-CHECK</text><text x="64" y="866" fill="#15151A" font-size="15" letter-spacing="2.6" font-family="Helvetica Neue, Arial, sans-serif" text-anchor="start">structure · planting · eight dialogue checks · three closes</text>
</svg>
